<?xml version="1.0" standalone="no"?>
<!DOCTYPE svg PUBLIC "-//W3C//DTD SVG 20010904//EN"
 "http://www.w3.org/TR/2001/REC-SVG-20010904/DTD/svg10.dtd">
<svg version="1.0" xmlns="http://www.w3.org/2000/svg"
 width="512.000000pt" height="512.000000pt" viewBox="0 0 512.000000 512.000000"
 preserveAspectRatio="xMidYMid meet">
<metadata>
Created by potrace 1.11, written by Peter Selinger 2001-2013
</metadata>
<g transform="translate(0.000000,512.000000) scale(0.100000,-0.100000)"
fill="#000000" stroke="none">
<path d="M2414 5101 c-61 -28 -84 -72 -84 -159 l0 -72 -39 -19 c-44 -23 -88
-71 -108 -118 -19 -47 -19 -769 0 -816 8 -18 42 -74 75 -125 34 -51 64 -108
67 -125 3 -18 5 -95 3 -172 -3 -131 -4 -140 -23 -143 -50 -10 -73 -74 -41
-118 12 -16 30 -20 118 -24 l103 -5 3 -1582 2 -1582 26 -20 c34 -26 54 -26 88
0 l26 20 2 1582 3 1582 103 5 c88 4 106 8 118 24 32 44 9 108 -41 118 -19 3
-20 12 -23 143 -2 77 0 154 3 172 3 17 33 74 67 125 33 51 67 107 75 125 19
47 19 769 0 816 -20 47 -64 95 -108 118 l-39 19 0 72 c0 136 -54 178 -230 178
-81 0 -114 -5 -146 -19z m234 -178 l3 -43 -90 0 -91 0 0 38 c0 21 3 42 7 46 4
4 43 5 88 4 l80 -3 3 -42z m127 -217 c13 -13 26 -39 30 -57 3 -19 5 -178 3
-355 l-3 -321 -75 -113 -75 -113 -3 -194 -3 -193 -89 0 -89 0 -3 193 -3 194
-75 113 -75 113 -3 321 c-2 177 0 336 3 355 4 18 17 44 30 57 24 24 27 24 215
24 188 0 191 0 215 -24z"/>
</g>
</svg>
